HIERARCHY
ROOT hip
{
  OFFSET 0 0 0
  CHANNELS 6 Xposition Yposition Zposition Zrotation Yrotation Xrotation
  JOINT abdomen
  {
    OFFSET 0 20.6881 -0.73152
    CHANNELS 3 Zrotation Xrotation Yrotation
    JOINT chest
    {
      OFFSET 0 11.7043 -0.48768
      CHANNELS 3 Zrotation Xrotation Yrotation
      JOINT neck
      {
        OFFSET 0 22.1894 -2.19456
        CHANNELS 3 Zrotation Xrotation Yrotation
        JOINT head
        {
          OFFSET -0.24384 7.07133 1.2192
          CHANNELS 3 Zrotation Xrotation Yrotation
          JOINT leftEye
          {
            OFFSET 4.14528 8.04674 8.04672
            CHANNELS 3 Zrotation Xrotation Yrotation
            End Site
            {
              OFFSET 1 0 0
            }
          }
          JOINT rightEye
          {
            OFFSET -3.6576 8.04674 8.04672
            CHANNELS 3 Zrotation Xrotation Yrotation
            End Site
            {
              OFFSET 1 0 0
            }
          }
        }
      }
      JOINT rCollar
      {
        OFFSET -2.68224 19.2634 -4.8768
        CHANNELS 3 Zrotation Xrotation Yrotation
        JOINT rShldr
        {
          OFFSET -8.77824 -1.95073 1.46304
          CHANNELS 3 Zrotation Xrotation Yrotation
          JOINT rForeArm
          {
            OFFSET -28.1742 -1.7115 0.48768
            CHANNELS 3 Zrotation Xrotation Yrotation
            JOINT rHand
            {
              OFFSET -22.5879 0.773209 7.07136
              CHANNELS 3 Zrotation Xrotation Yrotation
              JOINT rThumb1
              {
                OFFSET -1.2192 -0.487915 3.41376
                CHANNELS 3 Zrotation Xrotation Yrotation
                JOINT rThumb2
                {
                  OFFSET -3.37035 -0.52449 3.41376
                  CHANNELS 3 Zrotation Xrotation Yrotation
                  End Site
                  {
                    OFFSET -1.78271 -1.18214 1.43049
                  }
                }
              }
              JOINT rIndex1
              {
                OFFSET -7.75947 0.938293 5.60832
                CHANNELS 3 Zrotation Xrotation Yrotation
                JOINT rIndex2
                {
                  OFFSET -2.54057 -0.884171 1.56538
                  CHANNELS 3 Zrotation Xrotation Yrotation
                  End Site
                  {
                    OFFSET -1.62519 -0.234802 1.16502
                  }
                }
              }
              JOINT rMid1
              {
                OFFSET -8.24714 1.18213 3.41376
                CHANNELS 3 Zrotation Xrotation Yrotation
                JOINT rMid2
                {
                  OFFSET -3.10165 -0.590103 1.0647
                  CHANNELS 3 Zrotation Xrotation Yrotation
                  End Site
                  {
                    OFFSET -2.48547 -0.328903 0.83742
                  }
                }
              }
              JOINT rRing1
              {
                OFFSET -8.82822 0.546677 1.51678
                CHANNELS 3 Zrotation Xrotation Yrotation
                JOINT rRing2
                {
                  OFFSET -2.60934 -0.819778 -0.0198488
                  CHANNELS 3 Zrotation Xrotation Yrotation
                  End Site
                  {
                    OFFSET -2.33842 -0.294052 0.168128
                  }
                }
              }
              JOINT rPinky1
              {
                OFFSET -8.27202 -0.0477905 -0.4584
                CHANNELS 3 Zrotation Xrotation Yrotation
                JOINT rPinky2
                {
                  OFFSET -1.82734 -0.647385 -0.700984
                  CHANNELS 3 Zrotation Xrotation Yrotation
                  End Site
                  {
                    OFFSET -1.69225 -0.51767 -0.607171
                  }
                }
              }
            }
          }
        }
      }
      JOINT lCollar
      {
        OFFSET 2.68224 19.2634 -4.8768
        CHANNELS 3 Zrotation Xrotation Yrotation
        JOINT lShldr
        {
          OFFSET 8.77824 -1.95073 1.46304
          CHANNELS 3 Zrotation Xrotation Yrotation
          JOINT lForeArm
          {
            OFFSET 28.1742 -1.7115 0.48768
            CHANNELS 3 Zrotation Xrotation Yrotation
            JOINT lHand
            {
              OFFSET 22.5879 0.773209 7.07136
              CHANNELS 3 Zrotation Xrotation Yrotation
              JOINT lThumb1
              {
                OFFSET 1.2192 -0.487915 3.41376
                CHANNELS 3 Zrotation Xrotation Yrotation
                JOINT lThumb2
                {
                  OFFSET 3.37035 -0.52449 3.41376
                  CHANNELS 3 Zrotation Xrotation Yrotation
                  End Site
                  {
                    OFFSET 1.78271 -1.18214 1.43049
                  }
                }
              }
              JOINT lIndex1
              {
                OFFSET 7.75947 0.938293 5.60832
                CHANNELS 3 Zrotation Xrotation Yrotation
                JOINT lIndex2
                {
                  OFFSET 2.54057 -0.884171 1.56538
                  CHANNELS 3 Zrotation Xrotation Yrotation
                  End Site
                  {
                    OFFSET 1.62519 -0.234802 1.16502
                  }
                }
              }
              JOINT lMid1
              {
                OFFSET 8.24714 1.18213 3.41376
                CHANNELS 3 Zrotation Xrotation Yrotation
                JOINT lMid2
                {
                  OFFSET 3.10165 -0.590103 1.0647
                  CHANNELS 3 Zrotation Xrotation Yrotation
                  End Site
                  {
                    OFFSET 2.48547 -0.328903 0.83742
                  }
                }
              }
              JOINT lRing1
              {
                OFFSET 8.82822 0.546677 1.51678
                CHANNELS 3 Zrotation Xrotation Yrotation
                JOINT lRing2
                {
                  OFFSET 2.60934 -0.819778 -0.0198488
                  CHANNELS 3 Zrotation Xrotation Yrotation
                  End Site
                  {
                    OFFSET 2.33842 -0.294052 0.168128
                  }
                }
              }
              JOINT lPinky1
              {
                OFFSET 8.27202 -0.0477905 -0.4584
                CHANNELS 3 Zrotation Xrotation Yrotation
                JOINT lPinky2
                {
                  OFFSET 1.82734 -0.647385 -0.700984
                  CHANNELS 3 Zrotation Xrotation Yrotation
                  End Site
                  {
                    OFFSET 1.69225 -0.51767 -0.607171
                  }
                }
              }
            }
          }
        }
      }
    }
  }
  JOINT rButtock
  {
    OFFSET -8.77824 4.35084 1.2192
    CHANNELS 3 Zrotation Xrotation Yrotation
    JOINT rThigh
    {
      OFFSET 0 -1.70687 -2.19456
      CHANNELS 3 Zrotation Xrotation Yrotation
      JOINT rShin
      {
        OFFSET 0 -36.8199 0.73152
        CHANNELS 3 Zrotation Xrotation Yrotation
        JOINT rFoot
        {
          OFFSET 0.73152 -45.1104 -5.12064
          CHANNELS 3 Zrotation Xrotation Yrotation
          End Site
          {
            OFFSET -1.1221 -3.69964 12.103
          }
        }
      }
    }
  }
  JOINT lButtock
  {
    OFFSET 8.77824 4.35084 1.2192
    CHANNELS 3 Zrotation Xrotation Yrotation
    JOINT lThigh
    {
      OFFSET 0 -1.70687 -2.19456
      CHANNELS 3 Zrotation Xrotation Yrotation
      JOINT lShin
      {
        OFFSET 0 -36.8199 0.73152
        CHANNELS 3 Zrotation Xrotation Yrotation
        JOINT lFoot
        {
          OFFSET -0.73152 -45.1104 -5.12064
          CHANNELS 3 Zrotation Xrotation Yrotation
          End Site
          {
            OFFSET 1.1221 -3.69964 12.103
          }
        }
      }
    }
  }
}
MOTION
Frames:	4
Frame Time:	0.03333
88.57230983349838 -1.2733553686166506 -62.00823459343018 -166.1521453857422 -65.11621856689453 49.256065368652344 169.10060119628906 -19.475440979003906 143.9332733154297 62.467159271240234 -3.422884464263916 -56.9549446105957 112.33993530273438 7.481522083282471 -53.457176208496094 -12.79500675201416 73.63399505615234 -48.999534606933594 51.587459564208984 -23.33087730407715 -161.44200134277344 84.41666412353516 -36.7838249206543 55.279903411865234 -68.38705444335938 4.841609001159668 -96.58287048339844 -146.8568115234375 -17.198198318481445 -134.30917358398438 163.16795349121094 -51.28097152709961 -153.03306579589844 30.35565757751465 13.478564262390137 -75.77415466308594 119.17788696289062 -56.66469955444336 101.39012145996094 -169.1808319091797 29.835071563720703 -70.0185775756836 86.68412780761719 37.06536865234375 40.49261474609375 159.27272033691406 9.125402450561523 91.84243774414062 -95.35614013671875 76.30339050292969 34.353126525878906 135.4834442138672 20.12149429321289 119.13817596435547 147.95558166503906 -43.781707763671875 115.80792236328125 105.28508758544922 36.93724822998047 42.599090576171875 17.98040199279785 -23.383333206176758 -116.14598846435547 54.664493560791016 -11.76827621459961 17.320056915283203 150.34388732910156 -44.907405853271484 -41.95991134643555 -77.0977783203125 -30.573429107666016 -15.706127166748047 98.71268463134766 -8.307527542114258 152.29246520996094 30.366647720336914 -32.530731201171875 73.21160888671875 166.97906494140625 0.8637946248054504 -67.17414093017578 -165.37850952148438 -17.710948944091797 -143.1212615966797 136.73121643066406 43.827171325683594 -106.08260345458984 -66.10264587402344 -4.000881195068359 103.65447235107422 -39.2122802734375 1.293721318244934 31.58716583251953 -165.83172607421875 0.2055652141571045 -122.48477935791016 -134.35646057128906 24.324115753173828 -56.82461166381836 -171.0687255859375 -21.647174835205078 145.60928344726562 58.78609085083008 -46.02327346801758 -77.08955383300781 52.66412353515625 -35.850738525390625 2.9380500316619873 75.06236267089844 50.64410400390625 -55.421302795410156 -58.537353515625 31.3850154876709 -133.09368896484375 67.90774536132812 27.08551788330078 -91.71755981445312 127.45763397216797 44.425235748291016 128.91273498535156 -104.58519744873047 14.84129524230957 109.11766052246094 -31.846744537353516 -4.00548791885376 46.555458068847656 -63.70515823364258 1.4851500988006592 -59.257205963134766 -119.10680389404297 -19.956575393676758 44.159339904785156
90.32205659601485 -1.3055261999376453 -63.22416941546818 -165.09690856933594 -66.07518005371094 50.93384552001953 171.27044677734375 -20.76361846923828 146.65121459960938 62.56552505493164 -1.6810405254364014 -57.6617431640625 113.39672088623047 7.354748249053955 -54.16765213012695 -6.390312194824219 74.4407958984375 -55.650047302246094 48.360286712646484 -22.903322219848633 -162.75816345214844 85.140380859375 -36.91009521484375 55.93619918823242 -68.32618713378906 4.539426803588867 -97.42414855957031 -147.45616149902344 -16.75614356994629 -134.35830688476562 162.600830078125 -52.14751434326172 -154.38681030273438 29.835481643676758 16.4957332611084 -77.7824935913086 121.2381362915039 -57.26409149169922 103.35122680664062 -167.6751708984375 34.227291107177734 -71.92427062988281 90.91217803955078 37.16550827026367 34.73995590209961 158.8253173828125 8.214680671691895 90.95047760009766 -104.64910888671875 75.70932006835938 43.22513198852539 135.44879150390625 20.16874122619629 118.72386169433594 148.32562255859375 -43.287193298339844 115.96263885498047 105.69116973876953 37.00379180908203 41.26194763183594 16.80661964416504 -22.595705032348633 -116.22779846191406 54.255332946777344 -12.919190406799316 16.439802169799805 152.20445251464844 -43.5778694152832 -39.47835922241211 -76.83358001708984 -30.029747009277344 -16.639209747314453 100.66805267333984 -7.43092155456543 151.3260955810547 31.340906143188477 -32.640167236328125 73.69475555419922 167.76742553710938 0.7768310308456421 -67.93696594238281 -165.21678161621094 -18.022544860839844 -143.5166015625 138.4610595703125 42.93041229248047 -108.03468322753906 -67.48485565185547 -4.197173118591309 104.72315216064453 -39.63173294067383 1.8063949346542358 32.206390380859375 -164.66552734375 0.4888702929019928 -124.07819366455078 -132.63401794433594 23.650854110717773 -54.883602142333984 -170.95001220703125 -21.463777542114258 145.8111572265625 59.00083923339844 -46.22733688354492 -77.67472839355469 55.011962890625 -35.51419448852539 3.5738635063171387 80.73117065429688 52.070465087890625 -61.170166015625 -56.535438537597656 31.727188110351562 -134.0380096435547 67.68455505371094 26.7186279296875 -91.14144897460938 128.43417358398438 44.417354583740234 128.0860595703125 -99.2427978515625 17.582382202148438 103.98031616210938 -32.008338928222656 -3.9905319213867188 47.13377380371094 -63.634918212890625 2.1974050998687744 -57.857933044433594 -119.38135528564453 -19.245737075805664 44.86702346801758
92.04105683509567 -1.2698966248539796 -64.43638199785194 -165.93666076660156 -66.2073745727539 51.19675064086914 170.55088806152344 -23.398056030273438 148.1757354736328 62.684326171875 -1.6089668273925781 -57.60773468017578 113.41161346435547 7.0572943687438965 -52.80689239501953 -6.222794532775879 74.73812103271484 -55.161251068115234 50.100955963134766 -23.532543182373047 -163.57830810546875 81.71328735351562 -36.27584457397461 53.73312759399414 -67.06356048583984 4.619522571563721 -97.45611572265625 -146.9912567138672 -17.383806228637695 -134.27586364746094 162.08084106445312 -52.25966262817383 -155.33346557617188 29.2133731842041 15.946343421936035 -76.96118927001953 121.73197174072266 -57.71874237060547 103.72459411621094 -168.52842712402344 32.29561996459961 -70.3545150756836 88.94967651367188 37.31321716308594 37.4940299987793 158.5576629638672 8.524775505065918 90.81352996826172 -117.94432067871094 73.9692611694336 57.3221435546875 137.21604919433594 21.677520751953125 118.8692626953125 148.22511291503906 -43.66010665893555 115.96400451660156 106.47479248046875 36.6038818359375 40.72871780395508 17.691505432128906 -25.811677932739258 -116.82967376708984 55.12419128417969 -12.059924125671387 15.84579086303711 151.4594268798828 -43.063758850097656 -39.88203430175781 -77.6749267578125 -29.804256439208984 -16.980432510375977 100.99383544921875 -7.22644567489624 151.73348999023438 31.322105407714844 -32.76689147949219 73.61862182617188 167.62147521972656 0.3755584955215454 -67.92240905761719 -164.82830810546875 -18.053756713867188 -143.30445861816406 139.47348022460938 40.93289566040039 -108.33409118652344 -68.08140563964844 -3.717081069946289 104.7020263671875 -39.63942337036133 0.7549514770507812 32.495323181152344 -164.61932373046875 0.14630238711833954 -124.26930236816406 -131.43927001953125 23.785518646240234 -56.25943374633789 -171.15696716308594 -21.856096267700195 145.82789611816406 58.431888580322266 -46.31492233276367 -78.4996109008789 54.46867370605469 -36.71500015258789 3.7370388507843018 82.91727447509766 52.29399108886719 -64.29853820800781 -55.9827995300293 32.9664421081543 -133.82540893554688 67.8927993774414 26.953922271728516 -91.8592758178711 128.7552032470703 44.003108978271484 128.0617218017578 -101.71688079833984 15.470280647277832 109.84410095214844 -31.578765869140625 -3.5210001468658447 47.4471321105957 -64.29244995117188 1.4203799962997437 -58.74320602416992 -118.33045196533203 -18.60964584350586 45.35762405395508
93.71740915955553 -1.2063696757139257 -65.65883644889612 -167.97540283203125 -65.59745788574219 49.96219253540039 167.80592346191406 -25.13388442993164 147.4664764404297 62.68859100341797 -2.963416814804077 -57.01569747924805 112.62335205078125 6.865970611572266 -50.87372970581055 -11.263319969177246 74.1916275024414 -49.16676712036133 54.73887634277344 -24.52044105529785 -163.40274047851562 77.1565170288086 -35.25384521484375 50.567317962646484 -65.39382934570312 5.034066677093506 -96.99504852294922 -145.97207641601562 -18.25541877746582 -134.16636657714844 161.80809020996094 -51.730552673339844 -155.48239135742188 28.89861488342285 13.273540496826172 -74.76344299316406 120.67766571044922 -57.81130599975586 102.52550506591797 -170.22706604003906 26.983415603637695 -67.47876739501953 83.0579605102539 36.94987106323242 45.75436019897461 158.4384765625 9.38005542755127 91.40522766113281 -127.05024719238281 72.0177001953125 67.86064147949219 139.59585571289062 23.584396362304688 119.15841674804688 147.80189514160156 -44.50243377685547 115.80708312988281 106.80400085449219 36.10355758666992 41.1734733581543 19.711524963378906 -29.474727630615234 -117.29656219482422 56.30989074707031 -10.30180835723877 15.838935852050781 149.25401306152344 -43.57217025756836 -42.20551681518555 -79.04425811767578 -29.91266441345215 -17.172199249267578 99.95638275146484 -7.41668176651001 152.85040283203125 30.50823402404785 -32.78696060180664 73.06369018554688 167.010986328125 -0.12299173325300217 -67.40457916259766 -164.48944091796875 -17.76008415222168 -142.71737670898438 138.74501037597656 40.058197021484375 -106.35533905029297 -67.78397369384766 -3.0636775493621826 104.05225372314453 -39.203758239746094 -0.9000211358070374 32.379764556884766 -165.3378448486328 -0.44762393832206726 -123.319580078125 -131.35353088378906 24.462705612182617 -59.51123809814453 -171.3586883544922 -22.49444580078125 145.77325439453125 57.65214920043945 -46.281517028808594 -78.99286651611328 52.311649322509766 -38.49673080444336 3.584916114807129 81.47270965576172 51.82518005371094 -63.82452392578125 -56.933372497558594 34.41170120239258 -132.76475524902344 68.34722137451172 27.452489852905273 -93.0986099243164 128.39468383789062 43.52986145019531 128.7115478515625 -107.81954193115234 8.157222747802734 124.71707153320312 -30.95949363708496 -3.0273795127868652 47.307586669921875 -65.05614471435547 0.3877878189086914 -60.644161224365234 -116.88653564453125 -18.375993728637695 45.44677734375
